<mxfile host="app.diagrams.net" modified="2024-05-06T07:05:36.150Z" agent="Mozilla/5.0 (Windows NT 10.0; Win64; x64) AppleWebKit/537.36 (KHTML, like Gecko) Chrome/124.0.0.0 Safari/537.36" version="24.3.1" etag="9dL7PMuI18ZhLMNKj-4-" type="github">
  <diagram name="Page-1" id="SWNEexyFjbkWMizN6flA">
    <mxGraphModel>
      <root>
        <mxCell id="0" />
        <mxCell id="1" parent="0" />
      </root>
    </mxGraphModel>
  </diagram>
</mxfile>
